{
	"asset":{
		"generator":"Khronos glTF Blender I/O v3.5.30",
		"version":"2.0"
	},
	"extensionsUsed":[
		"KHR_materials_specular",
		"KHR_materials_ior"
	],
	"scene":0,
	"scenes":[
		{
			"name":"Scene",
			"nodes":[
				0
			]
		}
	],
	"nodes":[
		{
			"mesh":0,
			"name":"Plane.001",
			"rotation":[
				0.5862089991569519,
				-0.39542287588119507,
				0.3954227864742279,
				0.5862088203430176
			],
			"scale":[
				0.29584383964538574,
				0.29584383964538574,
				0.29584383964538574
			],
			"translation":[
				0.0751931369304657,
				0.6032374501228333,
				0.12638640403747559
			]
		}
	],
	"materials":[
		{
			"alphaCutoff":0.5,
			"alphaMode":"MASK",
			"doubleSided":true,
			"name":"Material.002",
			"pbrMetallicRoughness":{
				"baseColorTexture":{
					"index":0
				},
				"metallicFactor":0,
				"roughnessFactor":0.5
			}
		},
		{
			"doubleSided":true,
			"extensions":{
				"KHR_materials_specular":{
					"specularColorFactor":[
						0,
						0,
						0
					]
				},
				"KHR_materials_ior":{
					"ior":1.4500000476837158
				}
			},
			"name":"Material",
			"pbrMetallicRoughness":{
				"baseColorFactor":[
					0.800000011920929,
					0.800000011920929,
					0.800000011920929,
					1
				],
				"metallicFactor":0
			}
		},
		{
			"doubleSided":true,
			"extensions":{
				"KHR_materials_specular":{
					"specularColorFactor":[
						0,
						0,
						0
					]
				},
				"KHR_materials_ior":{
					"ior":1.4500000476837158
				}
			},
			"name":"Material.001",
			"pbrMetallicRoughness":{
				"baseColorFactor":[
					0.17144113779067993,
					0.06480320543050766,
					0.022173896431922913,
					1
				],
				"metallicFactor":0
			}
		}
	],
	"meshes":[
		{
			"name":"Plane.001",
			"primitives":[
				{
					"attributes":{
						"POSITION":0,
						"TEXCOORD_0":1,
						"NORMAL":2
					},
					"indices":3,
					"material":0
				},
				{
					"attributes":{
						"POSITION":4,
						"TEXCOORD_0":5,
						"NORMAL":6
					},
					"indices":7,
					"material":1
				},
				{
					"attributes":{
						"POSITION":8,
						"TEXCOORD_0":9,
						"NORMAL":10
					},
					"indices":11,
					"material":2
				}
			]
		}
	],
	"textures":[
		{
			"sampler":0,
			"source":0
		}
	],
	"images":[
		{
			"bufferView":4,
			"mimeType":"image/png",
			"name":"Sprite"
		}
	],
	"accessors":[
		{
			"bufferView":0,
			"componentType":5126,
			"count":4,
			"max":[
				1,
				0,
				1
			],
			"min":[
				-1,
				0,
				-1
			],
			"type":"VEC3"
		},
		{
			"bufferView":1,
			"componentType":5126,
			"count":4,
			"type":"VEC2"
		},
		{
			"bufferView":2,
			"componentType":5126,
			"count":4,
			"type":"VEC3"
		},
		{
			"bufferView":3,
			"componentType":5123,
			"count":6,
			"type":"SCALAR"
		},
		{
			"bufferView":5,
			"componentType":5126,
			"count":151,
			"max":[
				-0.18951010704040527,
				1.5113508701324463,
				3.3235018253326416
			],
			"min":[
				-2.758333444595337,
				-1.0574727058410645,
				0.7545788288116455
			],
			"type":"VEC3"
		},
		{
			"bufferView":6,
			"componentType":5126,
			"count":151,
			"type":"VEC2"
		},
		{
			"bufferView":7,
			"componentType":5126,
			"count":151,
			"type":"VEC3"
		},
		{
			"bufferView":8,
			"componentType":5123,
			"count":672,
			"type":"SCALAR"
		},
		{
			"bufferView":9,
			"componentType":5126,
			"count":90,
			"max":[
				0.8902789354324341,
				3.373276710510254,
				1.9179270267486572
			],
			"min":[
				-4.056277751922607,
				-1.8639354705810547,
				0.5322016477584839
			],
			"type":"VEC3"
		},
		{
			"bufferView":10,
			"componentType":5126,
			"count":90,
			"type":"VEC2"
		},
		{
			"bufferView":11,
			"componentType":5126,
			"count":90,
			"type":"VEC3"
		},
		{
			"bufferView":12,
			"componentType":5123,
			"count":360,
			"type":"SCALAR"
		}
	],
	"bufferViews":[
		{
			"buffer":0,
			"byteLength":48,
			"byteOffset":0,
			"target":34962
		},
		{
			"buffer":0,
			"byteLength":32,
			"byteOffset":48,
			"target":34962
		},
		{
			"buffer":0,
			"byteLength":48,
			"byteOffset":80,
			"target":34962
		},
		{
			"buffer":0,
			"byteLength":12,
			"byteOffset":128,
			"target":34963
		},
		{
			"buffer":0,
			"byteLength":431,
			"byteOffset":140
		},
		{
			"buffer":0,
			"byteLength":1812,
			"byteOffset":572,
			"target":34962
		},
		{
			"buffer":0,
			"byteLength":1208,
			"byteOffset":2384,
			"target":34962
		},
		{
			"buffer":0,
			"byteLength":1812,
			"byteOffset":3592,
			"target":34962
		},
		{
			"buffer":0,
			"byteLength":1344,
			"byteOffset":5404,
			"target":34963
		},
		{
			"buffer":0,
			"byteLength":1080,
			"byteOffset":6748,
			"target":34962
		},
		{
			"buffer":0,
			"byteLength":720,
			"byteOffset":7828,
			"target":34962
		},
		{
			"buffer":0,
			"byteLength":1080,
			"byteOffset":8548,
			"target":34962
		},
		{
			"buffer":0,
			"byteLength":720,
			"byteOffset":9628,
			"target":34963
		}
	],
	"samplers":[
		{
			"magFilter":9728,
			"minFilter":9984
		}
	],
	"buffers":[
		{
			"byteLength":10348,
			"uri":"data:application/octet-stream;base64,"
		}
	]
}
