{
	"asset":{
		"generator":"Khronos glTF Blender I/O v3.5.30",
		"version":"2.0"
	},
	"extensionsUsed":[
		"KHR_materials_specular",
		"KHR_materials_ior"
	],
	"scene":0,
	"scenes":[
		{
			"name":"Scene",
			"nodes":[
				5
			]
		}
	],
	"nodes":[
		{
			"name":"Bone.001",
			"rotation":[
				-0.005410871468484402,
				-0.7060070633888245,
				-0.708163321018219,
				0.005427386146038771
			],
			"scale":[
				0.9999999403953552,
				0.9999997615814209,
				1
			],
			"translation":[
				0.2810535430908203,
				0.7627076506614685,
				0.22900041937828064
			]
		},
		{
			"name":"Bone.002",
			"rotation":[
				-0.01166410930454731,
				0.705931544303894,
				0.7080873847007751,
				0.01169990561902523
			],
			"scale":[
				1,
				1.000000238418579,
				1
			],
			"translation":[
				-0.25967347621917725,
				0.7626267671585083,
				0.2555226981639862
			]
		},
		{
			"name":"Bone.003",
			"rotation":[
				-0.7288944721221924,
				-1.852693110038217e-08,
				0.016347797587513924,
				0.6844308972358704
			],
			"scale":[
				1,
				0.9999999403953552,
				1
			],
			"translation":[
				-4.237754804205528e-17,
				0.763405978679657,
				0
			]
		},
		{
			"children":[
				0,
				1,
				2
			],
			"name":"Bone",
			"rotation":[
				0.7060278654098511,
				8.442211196779681e-08,
				8.416506602770824e-08,
				0.7081840634346008
			],
			"scale":[
				1,
				0.9999999403953552,
				1
			],
			"translation":[
				0,
				-0.4000000059604645,
				-0.7634024024009705
			]
		},
		{
			"mesh":0,
			"name":"Cube",
			"skin":0
		},
		{
			"children":[
				4,
				3
			],
			"name":"Armature"
		}
	],
	"animations":[
		{
			"channels":[
				{
					"sampler":0,
					"target":{
						"node":3,
						"path":"translation"
					}
				},
				{
					"sampler":1,
					"target":{
						"node":3,
						"path":"rotation"
					}
				},
				{
					"sampler":2,
					"target":{
						"node":3,
						"path":"scale"
					}
				},
				{
					"sampler":3,
					"target":{
						"node":0,
						"path":"translation"
					}
				},
				{
					"sampler":4,
					"target":{
						"node":0,
						"path":"rotation"
					}
				},
				{
					"sampler":5,
					"target":{
						"node":0,
						"path":"scale"
					}
				},
				{
					"sampler":6,
					"target":{
						"node":1,
						"path":"translation"
					}
				},
				{
					"sampler":7,
					"target":{
						"node":1,
						"path":"rotation"
					}
				},
				{
					"sampler":8,
					"target":{
						"node":1,
						"path":"scale"
					}
				},
				{
					"sampler":9,
					"target":{
						"node":2,
						"path":"translation"
					}
				},
				{
					"sampler":10,
					"target":{
						"node":2,
						"path":"rotation"
					}
				},
				{
					"sampler":11,
					"target":{
						"node":2,
						"path":"scale"
					}
				}
			],
			"name":"idle",
			"samplers":[
				{
					"input":7,
					"interpolation":"LINEAR",
					"output":8
				},
				{
					"input":7,
					"interpolation":"LINEAR",
					"output":9
				},
				{
					"input":7,
					"interpolation":"LINEAR",
					"output":10
				},
				{
					"input":7,
					"interpolation":"LINEAR",
					"output":11
				},
				{
					"input":7,
					"interpolation":"LINEAR",
					"output":12
				},
				{
					"input":7,
					"interpolation":"LINEAR",
					"output":13
				},
				{
					"input":7,
					"interpolation":"LINEAR",
					"output":14
				},
				{
					"input":7,
					"interpolation":"LINEAR",
					"output":15
				},
				{
					"input":7,
					"interpolation":"LINEAR",
					"output":16
				},
				{
					"input":7,
					"interpolation":"LINEAR",
					"output":17
				},
				{
					"input":7,
					"interpolation":"LINEAR",
					"output":18
				},
				{
					"input":7,
					"interpolation":"LINEAR",
					"output":19
				}
			]
		},
		{
			"channels":[
				{
					"sampler":0,
					"target":{
						"node":3,
						"path":"translation"
					}
				},
				{
					"sampler":1,
					"target":{
						"node":3,
						"path":"rotation"
					}
				},
				{
					"sampler":2,
					"target":{
						"node":3,
						"path":"scale"
					}
				},
				{
					"sampler":3,
					"target":{
						"node":0,
						"path":"translation"
					}
				},
				{
					"sampler":4,
					"target":{
						"node":0,
						"path":"rotation"
					}
				},
				{
					"sampler":5,
					"target":{
						"node":0,
						"path":"scale"
					}
				},
				{
					"sampler":6,
					"target":{
						"node":1,
						"path":"translation"
					}
				},
				{
					"sampler":7,
					"target":{
						"node":1,
						"path":"rotation"
					}
				},
				{
					"sampler":8,
					"target":{
						"node":1,
						"path":"scale"
					}
				},
				{
					"sampler":9,
					"target":{
						"node":2,
						"path":"translation"
					}
				},
				{
					"sampler":10,
					"target":{
						"node":2,
						"path":"rotation"
					}
				},
				{
					"sampler":11,
					"target":{
						"node":2,
						"path":"scale"
					}
				}
			],
			"name":"run",
			"samplers":[
				{
					"input":20,
					"interpolation":"LINEAR",
					"output":21
				},
				{
					"input":20,
					"interpolation":"LINEAR",
					"output":22
				},
				{
					"input":20,
					"interpolation":"LINEAR",
					"output":23
				},
				{
					"input":20,
					"interpolation":"LINEAR",
					"output":24
				},
				{
					"input":20,
					"interpolation":"LINEAR",
					"output":25
				},
				{
					"input":20,
					"interpolation":"LINEAR",
					"output":26
				},
				{
					"input":20,
					"interpolation":"LINEAR",
					"output":27
				},
				{
					"input":20,
					"interpolation":"LINEAR",
					"output":28
				},
				{
					"input":20,
					"interpolation":"LINEAR",
					"output":29
				},
				{
					"input":20,
					"interpolation":"LINEAR",
					"output":30
				},
				{
					"input":20,
					"interpolation":"LINEAR",
					"output":31
				},
				{
					"input":20,
					"interpolation":"LINEAR",
					"output":32
				}
			]
		},
		{
			"channels":[
				{
					"sampler":0,
					"target":{
						"node":3,
						"path":"translation"
					}
				},
				{
					"sampler":1,
					"target":{
						"node":3,
						"path":"rotation"
					}
				},
				{
					"sampler":2,
					"target":{
						"node":3,
						"path":"scale"
					}
				},
				{
					"sampler":3,
					"target":{
						"node":0,
						"path":"translation"
					}
				},
				{
					"sampler":4,
					"target":{
						"node":0,
						"path":"rotation"
					}
				},
				{
					"sampler":5,
					"target":{
						"node":0,
						"path":"scale"
					}
				},
				{
					"sampler":6,
					"target":{
						"node":1,
						"path":"translation"
					}
				},
				{
					"sampler":7,
					"target":{
						"node":1,
						"path":"rotation"
					}
				},
				{
					"sampler":8,
					"target":{
						"node":1,
						"path":"scale"
					}
				},
				{
					"sampler":9,
					"target":{
						"node":2,
						"path":"translation"
					}
				},
				{
					"sampler":10,
					"target":{
						"node":2,
						"path":"rotation"
					}
				},
				{
					"sampler":11,
					"target":{
						"node":2,
						"path":"scale"
					}
				}
			],
			"name":"walk",
			"samplers":[
				{
					"input":20,
					"interpolation":"LINEAR",
					"output":33
				},
				{
					"input":20,
					"interpolation":"LINEAR",
					"output":34
				},
				{
					"input":20,
					"interpolation":"LINEAR",
					"output":35
				},
				{
					"input":20,
					"interpolation":"LINEAR",
					"output":36
				},
				{
					"input":20,
					"interpolation":"LINEAR",
					"output":37
				},
				{
					"input":20,
					"interpolation":"LINEAR",
					"output":38
				},
				{
					"input":20,
					"interpolation":"LINEAR",
					"output":39
				},
				{
					"input":20,
					"interpolation":"LINEAR",
					"output":40
				},
				{
					"input":20,
					"interpolation":"LINEAR",
					"output":41
				},
				{
					"input":20,
					"interpolation":"LINEAR",
					"output":42
				},
				{
					"input":20,
					"interpolation":"LINEAR",
					"output":43
				},
				{
					"input":20,
					"interpolation":"LINEAR",
					"output":44
				}
			]
		}
	],
	"materials":[
		{
			"doubleSided":true,
			"extensions":{
				"KHR_materials_specular":{
					"specularColorFactor":[
						0.118567882488869,
						0.118567882488869,
						0.118567882488869
					]
				},
				"KHR_materials_ior":{
					"ior":1.4500000476837158
				}
			},
			"name":"Material",
			"pbrMetallicRoughness":{
				"baseColorTexture":{
					"index":0
				},
				"metallicFactor":0,
				"roughnessFactor":0.3909090757369995
			}
		}
	],
	"meshes":[
		{
			"name":"Cube",
			"primitives":[
				{
					"attributes":{
						"POSITION":0,
						"TEXCOORD_0":1,
						"NORMAL":2,
						"JOINTS_0":3,
						"WEIGHTS_0":4
					},
					"indices":5,
					"material":0
				}
			]
		}
	],
	"textures":[
		{
			"sampler":0,
			"source":0
		}
	],
	"images":[
		{
			"mimeType":"image/png",
			"name":"Sprite",
			"uri":"Sprite.png"
		}
	],
	"skins":[
		{
			"inverseBindMatrices":6,
			"joints":[
				3,
				0,
				1,
				2
			],
			"name":"Armature"
		}
	],
	"accessors":[
		{
			"bufferView":0,
			"componentType":5126,
			"count":132,
			"max":[
				0.46434903144836426,
				0.8686455488204956,
				0.2969212234020233
			],
			"min":[
				-0.46434903144836426,
				-1.5022804737091064,
				-0.3484567105770111
			],
			"type":"VEC3"
		},
		{
			"bufferView":1,
			"componentType":5126,
			"count":132,
			"type":"VEC2"
		},
		{
			"bufferView":2,
			"componentType":5126,
			"count":132,
			"type":"VEC3"
		},
		{
			"bufferView":3,
			"componentType":5121,
			"count":132,
			"type":"VEC4"
		},
		{
			"bufferView":4,
			"componentType":5126,
			"count":132,
			"type":"VEC4"
		},
		{
			"bufferView":5,
			"componentType":5123,
			"count":432,
			"type":"SCALAR"
		},
		{
			"bufferView":6,
			"componentType":5126,
			"count":4,
			"type":"MAT4"
		},
		{
			"bufferView":7,
			"componentType":5126,
			"count":1,
			"max":[
				0.041666666666666664
			],
			"min":[
				0.041666666666666664
			],
			"type":"SCALAR"
		},
		{
			"bufferView":8,
			"componentType":5126,
			"count":1,
			"type":"VEC3"
		},
		{
			"bufferView":9,
			"componentType":5126,
			"count":1,
			"type":"VEC4"
		},
		{
			"bufferView":10,
			"componentType":5126,
			"count":1,
			"type":"VEC3"
		},
		{
			"bufferView":11,
			"componentType":5126,
			"count":1,
			"type":"VEC3"
		},
		{
			"bufferView":12,
			"componentType":5126,
			"count":1,
			"type":"VEC4"
		},
		{
			"bufferView":13,
			"componentType":5126,
			"count":1,
			"type":"VEC3"
		},
		{
			"bufferView":14,
			"componentType":5126,
			"count":1,
			"type":"VEC3"
		},
		{
			"bufferView":15,
			"componentType":5126,
			"count":1,
			"type":"VEC4"
		},
		{
			"bufferView":16,
			"componentType":5126,
			"count":1,
			"type":"VEC3"
		},
		{
			"bufferView":17,
			"componentType":5126,
			"count":1,
			"type":"VEC3"
		},
		{
			"bufferView":18,
			"componentType":5126,
			"count":1,
			"type":"VEC4"
		},
		{
			"bufferView":19,
			"componentType":5126,
			"count":1,
			"type":"VEC3"
		},
		{
			"bufferView":20,
			"componentType":5126,
			"count":21,
			"max":[
				0.8333333333333334
			],
			"min":[
				0
			],
			"type":"SCALAR"
		},
		{
			"bufferView":21,
			"componentType":5126,
			"count":21,
			"type":"VEC3"
		},
		{
			"bufferView":22,
			"componentType":5126,
			"count":21,
			"type":"VEC4"
		},
		{
			"bufferView":23,
			"componentType":5126,
			"count":21,
			"type":"VEC3"
		},
		{
			"bufferView":24,
			"componentType":5126,
			"count":21,
			"type":"VEC3"
		},
		{
			"bufferView":25,
			"componentType":5126,
			"count":21,
			"type":"VEC4"
		},
		{
			"bufferView":26,
			"componentType":5126,
			"count":21,
			"type":"VEC3"
		},
		{
			"bufferView":27,
			"componentType":5126,
			"count":21,
			"type":"VEC3"
		},
		{
			"bufferView":28,
			"componentType":5126,
			"count":21,
			"type":"VEC4"
		},
		{
			"bufferView":29,
			"componentType":5126,
			"count":21,
			"type":"VEC3"
		},
		{
			"bufferView":30,
			"componentType":5126,
			"count":21,
			"type":"VEC3"
		},
		{
			"bufferView":31,
			"componentType":5126,
			"count":21,
			"type":"VEC4"
		},
		{
			"bufferView":32,
			"componentType":5126,
			"count":21,
			"type":"VEC3"
		},
		{
			"bufferView":33,
			"componentType":5126,
			"count":21,
			"type":"VEC3"
		},
		{
			"bufferView":34,
			"componentType":5126,
			"count":21,
			"type":"VEC4"
		},
		{
			"bufferView":35,
			"componentType":5126,
			"count":21,
			"type":"VEC3"
		},
		{
			"bufferView":36,
			"componentType":5126,
			"count":21,
			"type":"VEC3"
		},
		{
			"bufferView":37,
			"componentType":5126,
			"count":21,
			"type":"VEC4"
		},
		{
			"bufferView":38,
			"componentType":5126,
			"count":21,
			"type":"VEC3"
		},
		{
			"bufferView":39,
			"componentType":5126,
			"count":21,
			"type":"VEC3"
		},
		{
			"bufferView":40,
			"componentType":5126,
			"count":21,
			"type":"VEC4"
		},
		{
			"bufferView":41,
			"componentType":5126,
			"count":21,
			"type":"VEC3"
		},
		{
			"bufferView":42,
			"componentType":5126,
			"count":21,
			"type":"VEC3"
		},
		{
			"bufferView":43,
			"componentType":5126,
			"count":21,
			"type":"VEC4"
		},
		{
			"bufferView":44,
			"componentType":5126,
			"count":21,
			"type":"VEC3"
		}
	],
	"bufferViews":[
		{
			"buffer":0,
			"byteLength":1584,
			"byteOffset":0,
			"target":34962
		},
		{
			"buffer":0,
			"byteLength":1056,
			"byteOffset":1584,
			"target":34962
		},
		{
			"buffer":0,
			"byteLength":1584,
			"byteOffset":2640,
			"target":34962
		},
		{
			"buffer":0,
			"byteLength":528,
			"byteOffset":4224,
			"target":34962
		},
		{
			"buffer":0,
			"byteLength":2112,
			"byteOffset":4752,
			"target":34962
		},
		{
			"buffer":0,
			"byteLength":864,
			"byteOffset":6864,
			"target":34963
		},
		{
			"buffer":0,
			"byteLength":256,
			"byteOffset":7728
		},
		{
			"buffer":0,
			"byteLength":4,
			"byteOffset":7984
		},
		{
			"buffer":0,
			"byteLength":12,
			"byteOffset":7988
		},
		{
			"buffer":0,
			"byteLength":16,
			"byteOffset":8000
		},
		{
			"buffer":0,
			"byteLength":12,
			"byteOffset":8016
		},
		{
			"buffer":0,
			"byteLength":12,
			"byteOffset":8028
		},
		{
			"buffer":0,
			"byteLength":16,
			"byteOffset":8040
		},
		{
			"buffer":0,
			"byteLength":12,
			"byteOffset":8056
		},
		{
			"buffer":0,
			"byteLength":12,
			"byteOffset":8068
		},
		{
			"buffer":0,
			"byteLength":16,
			"byteOffset":8080
		},
		{
			"buffer":0,
			"byteLength":12,
			"byteOffset":8096
		},
		{
			"buffer":0,
			"byteLength":12,
			"byteOffset":8108
		},
		{
			"buffer":0,
			"byteLength":16,
			"byteOffset":8120
		},
		{
			"buffer":0,
			"byteLength":12,
			"byteOffset":8136
		},
		{
			"buffer":0,
			"byteLength":84,
			"byteOffset":8148
		},
		{
			"buffer":0,
			"byteLength":252,
			"byteOffset":8232
		},
		{
			"buffer":0,
			"byteLength":336,
			"byteOffset":8484
		},
		{
			"buffer":0,
			"byteLength":252,
			"byteOffset":8820
		},
		{
			"buffer":0,
			"byteLength":252,
			"byteOffset":9072
		},
		{
			"buffer":0,
			"byteLength":336,
			"byteOffset":9324
		},
		{
			"buffer":0,
			"byteLength":252,
			"byteOffset":9660
		},
		{
			"buffer":0,
			"byteLength":252,
			"byteOffset":9912
		},
		{
			"buffer":0,
			"byteLength":336,
			"byteOffset":10164
		},
		{
			"buffer":0,
			"byteLength":252,
			"byteOffset":10500
		},
		{
			"buffer":0,
			"byteLength":252,
			"byteOffset":10752
		},
		{
			"buffer":0,
			"byteLength":336,
			"byteOffset":11004
		},
		{
			"buffer":0,
			"byteLength":252,
			"byteOffset":11340
		},
		{
			"buffer":0,
			"byteLength":252,
			"byteOffset":11592
		},
		{
			"buffer":0,
			"byteLength":336,
			"byteOffset":11844
		},
		{
			"buffer":0,
			"byteLength":252,
			"byteOffset":12180
		},
		{
			"buffer":0,
			"byteLength":252,
			"byteOffset":12432
		},
		{
			"buffer":0,
			"byteLength":336,
			"byteOffset":12684
		},
		{
			"buffer":0,
			"byteLength":252,
			"byteOffset":13020
		},
		{
			"buffer":0,
			"byteLength":252,
			"byteOffset":13272
		},
		{
			"buffer":0,
			"byteLength":336,
			"byteOffset":13524
		},
		{
			"buffer":0,
			"byteLength":252,
			"byteOffset":13860
		},
		{
			"buffer":0,
			"byteLength":252,
			"byteOffset":14112
		},
		{
			"buffer":0,
			"byteLength":336,
			"byteOffset":14364
		},
		{
			"buffer":0,
			"byteLength":252,
			"byteOffset":14700
		}
	],
	"samplers":[
		{
			"magFilter":9728,
			"minFilter":9984
		}
	],
	"buffers":[
		{
			"byteLength":14952,
			"uri":"burial_body.bin"
		}
	]
}
