{
	"asset":{
		"generator":"Khronos glTF Blender I/O v3.5.30",
		"version":"2.0"
	},
	"extensionsUsed":[
		"KHR_materials_specular",
		"KHR_materials_ior"
	],
	"scene":0,
	"scenes":[
		{
			"name":"Scene",
			"nodes":[
				0,
				1,
				2
			]
		}
	],
	"nodes":[
		{
			"mesh":0,
			"name":"Sphere"
		},
		{
			"mesh":1,
			"name":"Plane",
			"rotation":[
				-0.05596056953072548,
				0,
				0,
				0.9984330534934998
			],
			"scale":[
				0.2814265489578247,
				0.2814265489578247,
				0.2814265489578247
			],
			"translation":[
				0,
				0.06229088455438614,
				-0.023004213348031044
			]
		},
		{
			"mesh":2,
			"name":"Plane.001",
			"rotation":[
				0.602989673614502,
				-0.4736860394477844,
				0.3693285882472992,
				0.5249967575073242
			],
			"scale":[
				0.16304710507392883,
				0.16304710507392883,
				0.16304710507392883
			],
			"translation":[
				0.1169111505150795,
				0.3443410396575928,
				0.18273769319057465
			]
		}
	],
	"materials":[
		{
			"alphaCutoff":0.5,
			"alphaMode":"MASK",
			"doubleSided":true,
			"extensions":{
				"KHR_materials_specular":{
					"specularColorFactor":[
						0,
						0,
						0
					]
				},
				"KHR_materials_ior":{
					"ior":1.4500000476837158
				}
			},
			"name":"Material.004",
			"pbrMetallicRoughness":{
				"baseColorTexture":{
					"index":0
				},
				"metallicFactor":0
			}
		},
		{
			"alphaCutoff":0.5,
			"alphaMode":"MASK",
			"doubleSided":true,
			"extensions":{
				"KHR_materials_specular":{
					"specularColorFactor":[
						0,
						0,
						0
					]
				},
				"KHR_materials_ior":{
					"ior":1.4500000476837158
				}
			},
			"name":"Material.003",
			"pbrMetallicRoughness":{
				"baseColorTexture":{
					"index":1
				},
				"metallicFactor":0
			}
		},
		{
			"alphaCutoff":0.5,
			"alphaMode":"MASK",
			"doubleSided":true,
			"name":"Material.002",
			"pbrMetallicRoughness":{
				"baseColorTexture":{
					"index":2
				},
				"metallicFactor":0,
				"roughnessFactor":0.5
			}
		}
	],
	"meshes":[
		{
			"name":"Sphere",
			"primitives":[
				{
					"attributes":{
						"POSITION":0,
						"TEXCOORD_0":1,
						"NORMAL":2
					},
					"indices":3,
					"material":0
				}
			]
		},
		{
			"name":"Plane",
			"primitives":[
				{
					"attributes":{
						"POSITION":4,
						"TEXCOORD_0":5,
						"NORMAL":6
					},
					"indices":7,
					"material":1
				}
			]
		},
		{
			"name":"Plane.002",
			"primitives":[
				{
					"attributes":{
						"POSITION":8,
						"TEXCOORD_0":9,
						"NORMAL":10
					},
					"indices":11,
					"material":2
				}
			]
		}
	],
	"textures":[
		{
			"sampler":0,
			"source":0
		},
		{
			"sampler":0,
			"source":1
		},
		{
			"sampler":0,
			"source":2
		}
	],
	"images":[
		{
			"bufferView":4,
			"mimeType":"image/png",
			"name":"Sprite"
		},
		{
			"bufferView":9,
			"mimeType":"image/png",
			"name":"Sprite"
		},
		{
			"bufferView":14,
			"mimeType":"image/png",
			"name":"Sprite"
		}
	],
	"accessors":[
		{
			"bufferView":0,
			"componentType":5126,
			"count":225,
			"max":[
				0.20000003278255463,
				0.20000004768371582,
				0.20000001788139343
			],
			"min":[
				-0.20000001788139343,
				-0.20000004768371582,
				-0.20000004768371582
			],
			"type":"VEC3"
		},
		{
			"bufferView":1,
			"componentType":5126,
			"count":225,
			"type":"VEC2"
		},
		{
			"bufferView":2,
			"componentType":5126,
			"count":225,
			"type":"VEC3"
		},
		{
			"bufferView":3,
			"componentType":5123,
			"count":672,
			"type":"SCALAR"
		},
		{
			"bufferView":5,
			"componentType":5126,
			"count":12,
			"max":[
				1.2139192819595337,
				1.0475389957427979,
				1
			],
			"min":[
				-1.2139192819595337,
				-1.7763568394002505e-15,
				-1.6554286479949951
			],
			"type":"VEC3"
		},
		{
			"bufferView":6,
			"componentType":5126,
			"count":12,
			"type":"VEC2"
		},
		{
			"bufferView":7,
			"componentType":5126,
			"count":12,
			"type":"VEC3"
		},
		{
			"bufferView":8,
			"componentType":5123,
			"count":12,
			"type":"SCALAR"
		},
		{
			"bufferView":10,
			"componentType":5126,
			"count":4,
			"max":[
				1,
				0,
				1
			],
			"min":[
				-1,
				0,
				-1
			],
			"type":"VEC3"
		},
		{
			"bufferView":11,
			"componentType":5126,
			"count":4,
			"type":"VEC2"
		},
		{
			"bufferView":12,
			"componentType":5126,
			"count":4,
			"type":"VEC3"
		},
		{
			"bufferView":13,
			"componentType":5123,
			"count":6,
			"type":"SCALAR"
		}
	],
	"bufferViews":[
		{
			"buffer":0,
			"byteLength":2700,
			"byteOffset":0,
			"target":34962
		},
		{
			"buffer":0,
			"byteLength":1800,
			"byteOffset":2700,
			"target":34962
		},
		{
			"buffer":0,
			"byteLength":2700,
			"byteOffset":4500,
			"target":34962
		},
		{
			"buffer":0,
			"byteLength":1344,
			"byteOffset":7200,
			"target":34963
		},
		{
			"buffer":0,
			"byteLength":460,
			"byteOffset":8544
		},
		{
			"buffer":0,
			"byteLength":144,
			"byteOffset":9004,
			"target":34962
		},
		{
			"buffer":0,
			"byteLength":96,
			"byteOffset":9148,
			"target":34962
		},
		{
			"buffer":0,
			"byteLength":144,
			"byteOffset":9244,
			"target":34962
		},
		{
			"buffer":0,
			"byteLength":24,
			"byteOffset":9388,
			"target":34963
		},
		{
			"buffer":0,
			"byteLength":9530,
			"byteOffset":9412
		},
		{
			"buffer":0,
			"byteLength":48,
			"byteOffset":18944,
			"target":34962
		},
		{
			"buffer":0,
			"byteLength":32,
			"byteOffset":18992,
			"target":34962
		},
		{
			"buffer":0,
			"byteLength":48,
			"byteOffset":19024,
			"target":34962
		},
		{
			"buffer":0,
			"byteLength":12,
			"byteOffset":19072,
			"target":34963
		},
		{
			"buffer":0,
			"byteLength":431,
			"byteOffset":19084
		}
	],
	"samplers":[
		{
			"magFilter":9728,
			"minFilter":9984
		}
	],
	"buffers":[
		{
			"byteLength":19516,
			"uri":"data:application/octet-stream;base64,"
		}
	]
}
