{
	"asset":{
		"generator":"Khronos glTF Blender I/O v3.5.30",
		"version":"2.0"
	},
	"scene":0,
	"scenes":[
		{
			"name":"Scene",
			"nodes":[
				0
			]
		}
	],
	"nodes":[
		{
			"mesh":0,
			"name":"Cube",
			"scale":[
				0.18189138174057007,
				0.18189138174057007,
				0.18189138174057007
			]
		}
	],
	"materials":[
		{
			"doubleSided":true,
			"name":"Material",
			"pbrMetallicRoughness":{
				"baseColorFactor":[
					0.15000000596046448,
					0.08869665116071701,
					0.06428572535514832,
					1
				],
				"metallicFactor":0,
				"roughnessFactor":0.5
			}
		}
	],
	"meshes":[
		{
			"name":"Cube",
			"primitives":[
				{
					"attributes":{
						"POSITION":0,
						"TEXCOORD_0":1,
						"NORMAL":2
					},
					"indices":3,
					"material":0
				}
			]
		}
	],
	"accessors":[
		{
			"bufferView":0,
			"componentType":5126,
			"count":124,
			"max":[
				5.378303050994873,
				19.744226455688477,
				8.385361671447754
			],
			"min":[
				-3.281709909439087,
				-1,
				-8.90380573272705
			],
			"type":"VEC3"
		},
		{
			"bufferView":1,
			"componentType":5126,
			"count":124,
			"type":"VEC2"
		},
		{
			"bufferView":2,
			"componentType":5126,
			"count":124,
			"type":"VEC3"
		},
		{
			"bufferView":3,
			"componentType":5123,
			"count":228,
			"type":"SCALAR"
		}
	],
	"bufferViews":[
		{
			"buffer":0,
			"byteLength":1488,
			"byteOffset":0,
			"target":34962
		},
		{
			"buffer":0,
			"byteLength":992,
			"byteOffset":1488,
			"target":34962
		},
		{
			"buffer":0,
			"byteLength":1488,
			"byteOffset":2480,
			"target":34962
		},
		{
			"buffer":0,
			"byteLength":456,
			"byteOffset":3968,
			"target":34963
		}
	],
	"buffers":[
		{
			"byteLength":4424,
			"uri":"data:application/octet-stream;base64,"
		}
	]
}
