{
	"asset":{
		"generator":"Khronos glTF Blender I/O v3.5.30",
		"version":"2.0"
	},
	"extensionsUsed":[
		"KHR_materials_specular",
		"KHR_materials_ior",
		"KHR_texture_transform"
	],
	"extensionsRequired":[
		"KHR_texture_transform"
	],
	"scene":0,
	"scenes":[
		{
			"name":"Scene",
			"nodes":[
				0
			]
		}
	],
	"nodes":[
		{
			"mesh":0,
			"name":"Plane.001",
			"scale":[
				69.85875701904297,
				69.85875701904297,
				69.85875701904297
			]
		}
	],
	"materials":[
		{
			"doubleSided":true,
			"extensions":{
				"KHR_materials_specular":{
					"specularColorFactor":[
						0,
						0,
						0
					]
				},
				"KHR_materials_ior":{
					"ior":1.4500000476837158
				}
			},
			"name":"Material",
			"pbrMetallicRoughness":{
				"baseColorTexture":{
					"extensions":{
						"KHR_texture_transform":{
							"offset":[
								0,
								-32.33333407839141
							],
							"scale":[
								33.33333407839141,
								33.33333407839141
							]
						}
					},
					"index":0
				},
				"metallicFactor":0
			}
		}
	],
	"meshes":[
		{
			"name":"Plane.002",
			"primitives":[
				{
					"attributes":{
						"POSITION":0,
						"TEXCOORD_0":1,
						"NORMAL":2
					},
					"indices":3,
					"material":0
				}
			]
		}
	],
	"textures":[
		{
			"sampler":0,
			"source":0
		}
	],
	"images":[
		{
			"bufferView":4,
			"mimeType":"image/png",
			"name":"Grass001_1K_Color"
		}
	],
	"accessors":[
		{
			"bufferView":0,
			"componentType":5126,
			"count":1203,
			"max":[
				1,
				0.161708801984787,
				1
			],
			"min":[
				-1,
				-0.2533580958843231,
				-1
			],
			"type":"VEC3"
		},
		{
			"bufferView":1,
			"componentType":5126,
			"count":1203,
			"type":"VEC2"
		},
		{
			"bufferView":2,
			"componentType":5126,
			"count":1203,
			"type":"VEC3"
		},
		{
			"bufferView":3,
			"componentType":5123,
			"count":6657,
			"type":"SCALAR"
		}
	],
	"bufferViews":[
		{
			"buffer":0,
			"byteLength":14436,
			"byteOffset":0,
			"target":34962
		},
		{
			"buffer":0,
			"byteLength":9624,
			"byteOffset":14436,
			"target":34962
		},
		{
			"buffer":0,
			"byteLength":14436,
			"byteOffset":24060,
			"target":34962
		},
		{
			"buffer":0,
			"byteLength":13314,
			"byteOffset":38496,
			"target":34963
		},
		{
			"buffer":0,
			"byteLength":645942,
			"byteOffset":51812
		}
	],
	"samplers":[
		{
			"magFilter":9729,
			"minFilter":9987
		}
	],
	"buffers":[
		{
			"byteLength":697756,
			"uri":"data:application/octet-stream;base64,"
		}
	]
}
