{
	"asset":{
		"generator":"Khronos glTF Blender I/O v3.5.30",
		"version":"2.0"
	},
	"extensionsUsed":[
		"KHR_materials_specular",
		"KHR_materials_ior",
		"KHR_texture_transform"
	],
	"extensionsRequired":[
		"KHR_texture_transform"
	],
	"scene":0,
	"scenes":[
		{
			"name":"Scene",
			"nodes":[
				0
			]
		}
	],
	"nodes":[
		{
			"mesh":0,
			"name":"Plane.001",
			"rotation":[
				0.6337872743606567,
				0.31355020403862,
				-0.31355029344558716,
				0.6337873339653015
			],
			"scale":[
				0.2359534353017807,
				0.2359534353017807,
				0.2359534353017807
			],
			"translation":[
				0.4918147325515747,
				2.036651849746704,
				0.9583930373191833
			]
		}
	],
	"materials":[
		{
			"alphaCutoff":0.5,
			"alphaMode":"MASK",
			"doubleSided":true,
			"name":"Material.003",
			"pbrMetallicRoughness":{
				"baseColorTexture":{
					"index":0
				},
				"metallicFactor":0,
				"roughnessFactor":0.5
			}
		},
		{
			"doubleSided":true,
			"extensions":{
				"KHR_materials_specular":{
					"specularColorFactor":[
						0,
						0,
						0
					]
				},
				"KHR_materials_ior":{
					"ior":1.4500000476837158
				}
			},
			"name":"Material.001",
			"pbrMetallicRoughness":{
				"baseColorTexture":{
					"extensions":{
						"KHR_texture_transform":{
							"offset":[
								-25.499998092651367,
								8.799999237060547
							]
						}
					},
					"index":1
				},
				"metallicFactor":0,
				"roughnessFactor":0.5
			}
		},
		{
			"doubleSided":true,
			"name":"Material",
			"pbrMetallicRoughness":{
				"baseColorTexture":{
					"extensions":{
						"KHR_texture_transform":{
							"offset":[
								-25.499998092651367,
								8.799999237060547
							]
						}
					},
					"index":2
				},
				"metallicFactor":0,
				"roughnessFactor":0.5
			}
		},
		{
			"doubleSided":true,
			"name":"Material.002",
			"pbrMetallicRoughness":{
				"baseColorTexture":{
					"index":3
				},
				"metallicFactor":0,
				"roughnessFactor":0.5
			}
		},
		{
			"doubleSided":true,
			"name":"Material.004",
			"pbrMetallicRoughness":{
				"baseColorTexture":{
					"index":4
				},
				"metallicFactor":0,
				"roughnessFactor":0.5
			}
		},
		{
			"alphaCutoff":0.5,
			"alphaMode":"MASK",
			"doubleSided":true,
			"name":"Material.005",
			"pbrMetallicRoughness":{
				"baseColorTexture":{
					"index":5
				},
				"metallicFactor":0,
				"roughnessFactor":0.5
			}
		},
		{
			"alphaCutoff":0.5,
			"alphaMode":"MASK",
			"doubleSided":true,
			"name":"Material.006",
			"pbrMetallicRoughness":{
				"baseColorTexture":{
					"index":6
				},
				"metallicFactor":0,
				"roughnessFactor":0.5
			}
		},
		{
			"alphaCutoff":0.5,
			"alphaMode":"MASK",
			"doubleSided":true,
			"name":"Material.007",
			"pbrMetallicRoughness":{
				"baseColorTexture":{
					"index":7
				},
				"metallicFactor":0,
				"roughnessFactor":0.5
			}
		}
	],
	"meshes":[
		{
			"name":"Plane.001",
			"primitives":[
				{
					"attributes":{
						"POSITION":0,
						"TEXCOORD_0":1,
						"NORMAL":2
					},
					"indices":3,
					"material":0
				},
				{
					"attributes":{
						"POSITION":4,
						"TEXCOORD_0":5,
						"NORMAL":6
					},
					"indices":7,
					"material":1
				},
				{
					"attributes":{
						"POSITION":8,
						"TEXCOORD_0":9,
						"NORMAL":10
					},
					"indices":11,
					"material":2
				},
				{
					"attributes":{
						"POSITION":12,
						"TEXCOORD_0":13,
						"NORMAL":14
					},
					"indices":3,
					"material":3
				},
				{
					"attributes":{
						"POSITION":15,
						"TEXCOORD_0":16,
						"NORMAL":17
					},
					"indices":3,
					"material":4
				},
				{
					"attributes":{
						"POSITION":18,
						"TEXCOORD_0":19,
						"NORMAL":20
					},
					"indices":3,
					"material":5
				},
				{
					"attributes":{
						"POSITION":21,
						"TEXCOORD_0":22,
						"NORMAL":23
					},
					"indices":3,
					"material":6
				},
				{
					"attributes":{
						"POSITION":24,
						"TEXCOORD_0":25,
						"NORMAL":26
					},
					"indices":3,
					"material":7
				}
			]
		}
	],
	"textures":[
		{
			"sampler":0,
			"source":0
		},
		{
			"sampler":0,
			"source":1
		},
		{
			"sampler":0,
			"source":2
		},
		{
			"sampler":0,
			"source":3
		},
		{
			"sampler":0,
			"source":3
		},
		{
			"sampler":0,
			"source":4
		},
		{
			"sampler":0,
			"source":4
		},
		{
			"sampler":0,
			"source":4
		}
	],
	"images":[
		{
			"bufferView":4,
			"mimeType":"image/png",
			"name":"DoleBananaSingle"
		},
		{
			"bufferView":9,
			"mimeType":"image/png",
			"name":"grass"
		},
		{
			"bufferView":14,
			"mimeType":"image/png",
			"name":"brownstone"
		},
		{
			"bufferView":18,
			"mimeType":"image/jpeg",
			"name":"pngtree-fresh-red-apple-png-image_5738837"
		},
		{
			"bufferView":25,
			"mimeType":"image/png",
			"name":"DoleBananaSingle.webp"
		}
	],
	"accessors":[
		{
			"bufferView":0,
			"componentType":5126,
			"count":4,
			"max":[
				1,
				0,
				1
			],
			"min":[
				-1,
				0,
				-1
			],
			"type":"VEC3"
		},
		{
			"bufferView":1,
			"componentType":5126,
			"count":4,
			"type":"VEC2"
		},
		{
			"bufferView":2,
			"componentType":5126,
			"count":4,
			"type":"VEC3"
		},
		{
			"bufferView":3,
			"componentType":5123,
			"count":6,
			"type":"SCALAR"
		},
		{
			"bufferView":5,
			"componentType":5126,
			"count":252,
			"max":[
				8.823410034179688,
				1.9005069732666016,
				1.5596070289611816
			],
			"min":[
				-5.415755271911621,
				-9.059946060180664,
				-11.184770584106445
			],
			"type":"VEC3"
		},
		{
			"bufferView":6,
			"componentType":5126,
			"count":252,
			"type":"VEC2"
		},
		{
			"bufferView":7,
			"componentType":5126,
			"count":252,
			"type":"VEC3"
		},
		{
			"bufferView":8,
			"componentType":5123,
			"count":960,
			"type":"SCALAR"
		},
		{
			"bufferView":10,
			"componentType":5126,
			"count":72,
			"max":[
				3.716055154800415,
				-2.5631754398345947,
				9.598989486694336
			],
			"min":[
				0.34316182136535645,
				-5.779613494873047,
				-5.019340991973877
			],
			"type":"VEC3"
		},
		{
			"bufferView":11,
			"componentType":5126,
			"count":72,
			"type":"VEC2"
		},
		{
			"bufferView":12,
			"componentType":5126,
			"count":72,
			"type":"VEC3"
		},
		{
			"bufferView":13,
			"componentType":5123,
			"count":108,
			"type":"SCALAR"
		},
		{
			"bufferView":15,
			"componentType":5126,
			"count":4,
			"max":[
				7.346529006958008,
				-1.298912763595581,
				-0.4149317741394043
			],
			"min":[
				5.653011322021484,
				-2.362867593765259,
				-2.4149320125579834
			],
			"type":"VEC3"
		},
		{
			"bufferView":16,
			"componentType":5126,
			"count":4,
			"type":"VEC2"
		},
		{
			"bufferView":17,
			"componentType":5126,
			"count":4,
			"type":"VEC3"
		},
		{
			"bufferView":19,
			"componentType":5126,
			"count":4,
			"max":[
				-2.3027749061584473,
				-4.900909423828125,
				1.8710908889770508
			],
			"min":[
				-2.487739086151123,
				-6.892338752746582,
				-0.12890982627868652
			],
			"type":"VEC3"
		},
		{
			"bufferView":20,
			"componentType":5126,
			"count":4,
			"type":"VEC2"
		},
		{
			"bufferView":21,
			"componentType":5126,
			"count":4,
			"type":"VEC3"
		},
		{
			"bufferView":22,
			"componentType":5126,
			"count":4,
			"max":[
				7.047617435455322,
				1.2398853302001953,
				-3.8307223320007324
			],
			"min":[
				5.047617435455322,
				1.2398853302001953,
				-5.830722332000732
			],
			"type":"VEC3"
		},
		{
			"bufferView":23,
			"componentType":5126,
			"count":4,
			"type":"VEC2"
		},
		{
			"bufferView":24,
			"componentType":5126,
			"count":4,
			"type":"VEC3"
		},
		{
			"bufferView":26,
			"componentType":5126,
			"count":4,
			"max":[
				1.3534635305404663,
				-7.8705339431762695,
				-3.830721616744995
			],
			"min":[
				0.8463922739028931,
				-9.80518627166748,
				-5.830721855163574
			],
			"type":"VEC3"
		},
		{
			"bufferView":27,
			"componentType":5126,
			"count":4,
			"type":"VEC2"
		},
		{
			"bufferView":28,
			"componentType":5126,
			"count":4,
			"type":"VEC3"
		},
		{
			"bufferView":29,
			"componentType":5126,
			"count":4,
			"max":[
				7.300605297088623,
				-7.570527076721191,
				-2.635082960128784
			],
			"min":[
				6.793533802032471,
				-9.505179405212402,
				-4.635083198547363
			],
			"type":"VEC3"
		},
		{
			"bufferView":30,
			"componentType":5126,
			"count":4,
			"type":"VEC2"
		},
		{
			"bufferView":31,
			"componentType":5126,
			"count":4,
			"type":"VEC3"
		}
	],
	"bufferViews":[
		{
			"buffer":0,
			"byteLength":48,
			"byteOffset":0,
			"target":34962
		},
		{
			"buffer":0,
			"byteLength":32,
			"byteOffset":48,
			"target":34962
		},
		{
			"buffer":0,
			"byteLength":48,
			"byteOffset":80,
			"target":34962
		},
		{
			"buffer":0,
			"byteLength":12,
			"byteOffset":128,
			"target":34963
		},
		{
			"buffer":0,
			"byteLength":75272,
			"byteOffset":140
		},
		{
			"buffer":0,
			"byteLength":3024,
			"byteOffset":75412,
			"target":34962
		},
		{
			"buffer":0,
			"byteLength":2016,
			"byteOffset":78436,
			"target":34962
		},
		{
			"buffer":0,
			"byteLength":3024,
			"byteOffset":80452,
			"target":34962
		},
		{
			"buffer":0,
			"byteLength":1920,
			"byteOffset":83476,
			"target":34963
		},
		{
			"buffer":0,
			"byteLength":353,
			"byteOffset":85396
		},
		{
			"buffer":0,
			"byteLength":864,
			"byteOffset":85752,
			"target":34962
		},
		{
			"buffer":0,
			"byteLength":576,
			"byteOffset":86616,
			"target":34962
		},
		{
			"buffer":0,
			"byteLength":864,
			"byteOffset":87192,
			"target":34962
		},
		{
			"buffer":0,
			"byteLength":216,
			"byteOffset":88056,
			"target":34963
		},
		{
			"buffer":0,
			"byteLength":228,
			"byteOffset":88272
		},
		{
			"buffer":0,
			"byteLength":48,
			"byteOffset":88500,
			"target":34962
		},
		{
			"buffer":0,
			"byteLength":32,
			"byteOffset":88548,
			"target":34962
		},
		{
			"buffer":0,
			"byteLength":48,
			"byteOffset":88580,
			"target":34962
		},
		{
			"buffer":0,
			"byteLength":274004,
			"byteOffset":88628
		},
		{
			"buffer":0,
			"byteLength":48,
			"byteOffset":362632,
			"target":34962
		},
		{
			"buffer":0,
			"byteLength":32,
			"byteOffset":362680,
			"target":34962
		},
		{
			"buffer":0,
			"byteLength":48,
			"byteOffset":362712,
			"target":34962
		},
		{
			"buffer":0,
			"byteLength":48,
			"byteOffset":362760,
			"target":34962
		},
		{
			"buffer":0,
			"byteLength":32,
			"byteOffset":362808,
			"target":34962
		},
		{
			"buffer":0,
			"byteLength":48,
			"byteOffset":362840,
			"target":34962
		},
		{
			"buffer":0,
			"byteLength":75272,
			"byteOffset":362888
		},
		{
			"buffer":0,
			"byteLength":48,
			"byteOffset":438160,
			"target":34962
		},
		{
			"buffer":0,
			"byteLength":32,
			"byteOffset":438208,
			"target":34962
		},
		{
			"buffer":0,
			"byteLength":48,
			"byteOffset":438240,
			"target":34962
		},
		{
			"buffer":0,
			"byteLength":48,
			"byteOffset":438288,
			"target":34962
		},
		{
			"buffer":0,
			"byteLength":32,
			"byteOffset":438336,
			"target":34962
		},
		{
			"buffer":0,
			"byteLength":48,
			"byteOffset":438368,
			"target":34962
		}
	],
	"samplers":[
		{
			"magFilter":9728,
			"minFilter":9984
		}
	],
	"buffers":[
		{
			"byteLength":438416,
			"uri":"data:application/octet-stream;base64,"
		}
	]
}
